<svg width="403" height="254" viewBox="0 0 403 254" fill="none" xmlns="http://www.w3.org/2000/svg">
<g filter="url(#filter0_d_72_2)">
<rect x="36" y="27" width="331" height="182" rx="23" fill="#2D2D2D"/>
</g>
<path d="M283.926 75.7293C285.55 76.2709 286.454 77.983 286.013 79.6146L285.959 79.7955L284.474 84.2458C284.314 84.7251 283.991 85.1304 283.564 85.393L283.399 85.4846L277.136 88.6149C276.684 88.8407 276.168 88.8988 275.681 88.7826L275.5 88.7308L271.049 87.2463C269.425 86.7047 268.521 84.9926 268.962 83.361L269.017 83.1801L271.729 75.0491C272.271 73.4253 273.983 72.5213 275.615 72.9625L275.795 73.0171L283.926 75.7293ZM283.587 76.7456L275.456 74.0334C274.385 73.676 273.23 74.2124 272.802 75.2383L272.746 75.3882L270.033 83.5192C269.676 84.5908 270.212 85.7454 271.238 86.1738L271.388 86.23L275.454 87.5861L276.471 84.5369C277.012 82.9131 278.725 82.0091 280.356 82.4503L280.537 82.5049L283.586 83.5219L284.942 79.4564C285.3 78.3848 284.763 77.2303 283.737 76.8018L283.587 76.7456ZM283.026 84.4659L280.198 83.5212C279.126 83.1638 277.972 83.7002 277.543 84.7261L277.487 84.876L276.544 87.7025L276.657 87.6565L282.92 84.5262C282.957 84.508 282.992 84.4879 283.026 84.4659Z" fill="white"/>
<path d="M242.747 67.3578C242.438 67.5183 242.316 67.8998 242.477 68.2097C242.638 68.5196 243.019 68.6407 243.329 68.4801L248.941 65.5725C249.251 65.4119 249.372 65.0305 249.211 64.7206C249.051 64.4106 248.669 64.2896 248.359 64.4501L242.747 67.3578Z" fill="white"/>
<path d="M244.222 71.5768C244.061 71.2669 244.182 70.8854 244.492 70.7248L250.104 67.8172C250.414 67.6567 250.795 67.7777 250.956 68.0876C251.116 68.3975 250.995 68.779 250.685 68.9396L245.074 71.8472C244.764 72.0078 244.382 71.8867 244.222 71.5768Z" fill="white"/>
<path d="M246.237 74.0919C245.927 74.2525 245.806 74.634 245.966 74.9438C246.127 75.2537 246.508 75.3748 246.818 75.2143L249.063 74.0512C249.373 73.8906 249.494 73.5091 249.333 73.1993C249.173 72.8894 248.791 72.7683 248.481 72.9288L246.237 74.0919Z" fill="white"/>
<path d="M238.717 62.3275C238.408 62.4881 238.286 62.8695 238.447 63.1795L238.738 63.7406L238.177 64.0314C237.247 64.5132 236.884 65.6574 237.365 66.5872L244.344 80.0555C244.825 80.9852 245.97 81.3485 246.899 80.8667L253.634 77.3776C253.782 77.3005 253.895 77.1674 253.945 77.0076L256.109 70.1921C256.159 70.0324 256.144 69.859 256.067 69.7101L250.834 59.6089C250.352 58.6791 249.208 58.316 248.278 58.7977L247.717 59.0885L247.426 58.5273C247.265 58.2173 246.884 58.0963 246.574 58.2569C246.264 58.4174 246.143 58.7989 246.304 59.1088L246.594 59.67L243.788 61.1238L243.498 60.5626C243.337 60.2527 242.956 60.1316 242.646 60.2922C242.336 60.4528 242.215 60.8342 242.375 61.1441L242.666 61.7053L239.86 63.1591L239.569 62.5979C239.409 62.288 239.027 62.1669 238.717 62.3275ZM248.859 59.92C249.169 59.7595 249.551 59.8805 249.711 60.1905L254.654 69.7305L251.848 71.1843C250.919 71.666 250.555 72.8103 251.037 73.7401L252.491 76.546L246.318 79.7444C246.008 79.905 245.627 79.7838 245.466 79.474L238.488 66.0057C238.327 65.6958 238.448 65.3143 238.758 65.1538L248.859 59.92ZM254.442 71.264L253.202 75.1709L252.159 73.1586C251.999 72.8487 252.12 72.4672 252.43 72.3066L254.442 71.264Z" fill="white"/>
<mask id="mask0_72_2" style="mask-type:alpha" maskUnits="userSpaceOnUse" x="305" y="50" width="32" height="32">
<rect x="314.761" y="50" width="24" height="24" transform="rotate(23.9983 314.761 50)" fill="#D9D9D9"/>
</mask>
<g mask="url(#mask0_72_2)">
<path d="M327.164 65.7837L325.557 61.6477L327.329 60.9863C327.747 60.8258 328.162 60.8371 328.573 61.0201C328.984 61.2031 329.262 61.5003 329.408 61.9116L329.838 63.0338C329.999 63.4519 329.988 63.8665 329.805 64.2776C329.622 64.6887 329.324 64.9669 328.913 65.1122L327.164 65.7837ZM310.116 69.9614L311.407 67.0608L317.382 64.7673L314.718 57.7801L319.504 55.9428L322.18 62.963L325.557 61.6477L327.164 65.7837L323.787 67.099L326.44 74.1091L321.687 75.9338L318.978 68.9262L312.994 71.2425L310.116 69.9614ZM318.329 64.4227L321.266 63.295L320.28 60.7763L318.729 61.3718L318.384 60.4248L319.936 59.8293L318.912 57.2116L315.974 58.3393L318.329 64.4227ZM322.234 74.6446L325.171 73.5169L324.181 70.8865L322.629 71.4821L322.252 70.5477L323.826 69.9623L322.85 67.4208L319.902 68.5714L322.234 74.6446ZM311.436 69.4545L313.012 70.1561L325.862 65.2042L324.988 62.9267L312.138 67.8786L311.436 69.4545Z" fill="white"/>
</g>
<mask id="mask1_72_2" style="mask-type:alpha" maskUnits="userSpaceOnUse" x="272" y="39" width="34" height="34">
<rect x="283.474" y="39.9543" width="24" height="24" transform="rotate(25.9964 283.474 39.9543)" fill="#D9D9D9"/>
</mask>
<g mask="url(#mask1_72_2)">
<path d="M276.352 56.8411L276.79 55.9423L278.587 56.8189L284.176 45.3589L300.355 53.2486L294.766 64.7086L296.564 65.5852L296.126 66.484L276.352 56.8411ZM284.879 59.8871L288.475 61.6404L288.803 60.9662L285.208 59.213L284.879 59.8871ZM280.253 55.6843L294.635 62.6973L299.018 53.7091L284.637 46.6961L280.253 55.6843Z" fill="white"/>
</g>
<defs>
<filter id="filter0_d_72_2" x="0" y="0" width="403" height="254" filterUnits="userSpaceOnUse" color-interpolation-filters="sRGB">
<feFlood flood-opacity="0" result="BackgroundImageFix"/>
<feColorMatrix in="SourceAlpha" type="matrix" values="0 0 0 0 0 0 0 0 0 0 0 0 0 0 0 0 0 0 127 0" result="hardAlpha"/>
<feOffset dy="9"/>
<feGaussianBlur stdDeviation="18"/>
<feComposite in2="hardAlpha" operator="out"/>
<feColorMatrix type="matrix" values="0 0 0 0 0 0 0 0 0 0 0 0 0 0 0 0 0 0 0.25 0"/>
<feBlend mode="normal" in2="BackgroundImageFix" result="effect1_dropShadow_72_2"/>
<feBlend mode="normal" in="SourceGraphic" in2="effect1_dropShadow_72_2" result="shape"/>
</filter>
</defs>
</svg>
