<svg width="14" height="13" viewBox="0 0 14 13" fill="none" xmlns="http://www.w3.org/2000/svg">
<path d="M6.46488 1.11719C4.98118 -0.366503 2.58085 -0.373713 1.10357 1.10357C-0.373713 2.58085 -0.366503 4.98119 1.11719 6.46488L6.60947 11.9572C6.83729 12.185 7.20665 12.185 7.43446 11.9572L12.8982 6.49664C14.372 5.01456 14.3674 2.62095 12.8834 1.13699C11.3971 -0.349366 8.99561 -0.356577 7.51569 1.12334L6.99386 1.64617L6.46488 1.11719ZM12.0709 5.67395L7.02196 10.7197L1.94218 5.63989C0.913008 4.61072 0.908016 2.94909 1.92855 1.92855C2.94909 0.908017 4.61072 0.913008 5.63989 1.94218L6.58418 2.88646C6.81588 3.11817 7.19292 3.11363 7.41898 2.87641L8.34068 1.94833C9.36386 0.925152 11.0266 0.930146 12.0584 1.96198C13.0879 2.99141 13.0911 4.64807 12.0709 5.67395Z" fill="#212121"/>
</svg>
