<svg width="25" height="29" viewBox="0 0 25 29" fill="none" xmlns="http://www.w3.org/2000/svg">
<path d="M18.2126 0C19.9878 0 21.4269 1.46067 21.4269 3.2625V25.7375C21.4269 27.5393 19.9878 29 18.2126 29H3.21429C1.43908 29 0 27.5393 0 25.7375V3.2625C0 1.46067 1.43908 0 3.21429 0H18.2126ZM18.2126 2.175H3.21429C2.62255 2.175 2.14286 2.66189 2.14286 3.2625V25.7375C2.14286 26.3381 2.62255 26.825 3.21429 26.825H18.2126C18.8044 26.825 19.284 26.3381 19.284 25.7375V3.2625C19.284 2.66189 18.8044 2.175 18.2126 2.175ZM22.8571 18.8528H23.9286C24.471 18.8528 24.9193 19.2619 24.9902 19.7927L25 19.9403V22.1125C25 22.6631 24.5969 23.1181 24.074 23.1901L23.9286 23.2H22.8571V18.8528H23.9286H22.8571ZM22.8571 13.0528H23.9286C24.471 13.0528 24.9193 13.4619 24.9902 13.9927L25 14.1403V16.3125C25 16.8631 24.5969 17.3181 24.074 17.3901L23.9286 17.4H22.8571V13.0528H23.9286H22.8571ZM22.8571 7.25281H23.9286C24.471 7.25281 24.9193 7.66193 24.9902 8.19274L25 8.34031V10.5125C25 11.0631 24.5969 11.5181 24.074 11.5901L23.9286 11.6H22.8571V7.25281H23.9286H22.8571ZM16.0698 4.35C16.6615 4.35 17.1412 4.83689 17.1412 5.4375V9.06033C17.1412 9.66094 16.6615 10.1478 16.0698 10.1478H5.35714C4.76541 10.1478 4.28571 9.66094 4.28571 9.06033V5.4375C4.28571 4.83689 4.76541 4.35 5.35714 4.35H16.0698ZM14.9983 6.525H6.42857V7.97283H14.9983V6.525Z" fill="#212121"/>
</svg>
